<svg width="39" height="39" viewBox="0 0 39 39" fill="none" xmlns="http://www.w3.org/2000/svg">
<path d="M24.9814 14.6062C25.4479 14.2841 25.8887 13.9809 26.3001 13.6968C31.4002 10.175 32.0793 9.6926 32.7564 9.21394L36.122 13.9765C35.416 14.4756 34.7112 14.9729 29.6126 18.4937C28.9478 18.9528 28.2078 19.4619 27.4032 20.0172L36.8001 25.7235L33.7751 30.7079L24.9814 25.3688V37.3798H19.1501V25.7172C14.9214 28.6357 10.1059 31.9589 5.20947 35.3454L1.89385 30.5485C7.12151 26.9329 12.2576 23.3889 16.686 20.3328L1.6001 11.1733L3.1126 8.68112L4.62666 6.18891L19.1501 15.0062V1.79199H24.9814V14.6062Z" fill="#EA7B48"/>
</svg>
